<svg id="visual" viewBox="0 0 900 450" width="900" height="450" xmlns="http://www.w3.org/2000/svg" xmlns:xlink="http://www.w3.org/1999/xlink" version="1.1"><rect x="0" y="0" width="900" height="450" fill="#282c34"></rect><defs><linearGradient id="grad1_0" x1="50%" y1="0%" x2="100%" y2="100%"><stop offset="10%" stop-color="#282c34" stop-opacity="1"></stop><stop offset="90%" stop-color="#282c34" stop-opacity="1"></stop></linearGradient></defs><defs><linearGradient id="grad2_0" x1="0%" y1="0%" x2="50%" y2="100%"><stop offset="10%" stop-color="#282c34" stop-opacity="1"></stop><stop offset="90%" stop-color="#282c34" stop-opacity="1"></stop></linearGradient></defs><g transform="translate(900, 0)"><path d="M0 247.5C-32.4 235.2 -64.8 222.9 -83.4 201.4C-102.1 179.9 -106.9 149.3 -132.9 132.9C-158.9 116.6 -206 114.5 -228.7 94.7C-251.3 74.9 -249.4 37.5 -247.5 0L0 0Z" fill="#F282A6"></path></g><g transform="translate(0, 450)"><path d="M0 -247.5C34.7 -246.6 69.4 -245.7 94.7 -228.7C120 -211.6 135.9 -178.5 152.7 -152.7C169.6 -126.9 187.3 -108.4 203.3 -84.2C219.2 -60 233.4 -30 247.5 0L0 0Z" fill="#F282A6"></path></g></svg>