<svg width="649" height="397" viewBox="0 0 649 397" fill="none" xmlns="http://www.w3.org/2000/svg">
<g id="Frame" clip-path="url(#clip0_2_3)">
<path id="CAPRE C E" d="M61.8125 347.625C64.2292 347.625 66.5417 347.354 68.75 346.812C71 346.229 73.125 345.417 75.125 344.375C77.125 343.333 78.9792 342.104 80.6875 340.688C82.3958 339.229 83.9167 337.604 85.25 335.812L96.8125 345.812C94.7708 348.396 92.4583 350.75 89.875 352.875C87.3333 355 84.5625 356.812 81.5625 358.312C78.6042 359.812 75.4583 360.979 72.125 361.812C68.8333 362.604 65.3958 363 61.8125 363C57.6875 363 53.7083 362.479 49.875 361.438C46.0833 360.354 42.5208 358.833 39.1875 356.875C35.8542 354.917 32.8333 352.583 30.125 349.875C27.4167 347.167 25.0833 344.146 23.125 340.812C21.1667 337.479 19.6458 333.917 18.5625 330.125C17.5208 326.292 17 322.312 17 318.188C17 314.062 17.5208 310.104 18.5625 306.312C19.6458 302.479 21.1667 298.896 23.125 295.562C25.0833 292.229 27.4167 289.208 30.125 286.5C32.8333 283.792 35.8542 281.458 39.1875 279.5C42.5208 277.542 46.0833 276.042 49.875 275C53.7083 273.917 57.6875 273.375 61.8125 273.375C65.3958 273.375 68.8333 273.792 72.125 274.625C75.4583 275.417 78.6042 276.562 81.5625 278.062C84.5625 279.562 87.3333 281.375 89.875 283.5C92.4583 285.583 94.7708 287.917 96.8125 290.5L85.25 300.562C83.9167 298.771 82.3958 297.146 80.6875 295.688C78.9792 294.229 77.125 293 75.125 292C73.125 290.958 71 290.167 68.75 289.625C66.5417 289.042 64.2292 288.75 61.8125 288.75C57.7708 288.75 53.9583 289.521 50.375 291.062C46.7917 292.604 43.6667 294.708 41 297.375C38.3333 300.042 36.2292 303.167 34.6875 306.75C33.1458 310.292 32.375 314.104 32.375 318.188C32.375 322.229 33.1458 326.042 34.6875 329.625C36.2292 333.208 38.3333 336.333 41 339C43.6667 341.667 46.7917 343.771 50.375 345.312C53.9583 346.854 57.7708 347.625 61.8125 347.625ZM152.688 273.375L153.125 274.625L144.375 297.188L132.25 328H156.438L150.625 313.438L159.375 290.875L187.312 363H169.312L162.688 344.625H126L118.5 363H101L135.562 273.375H152.688ZM214.75 363H197.625V273.375H230.438C238.396 273.375 245.208 276.188 250.875 281.812C256.667 287.479 259.562 294.271 259.562 302.188V303.375C259.562 311.292 256.667 318.083 250.875 323.75C245.167 329.333 238.354 332.125 230.438 332.125H214.75V363ZM228.75 315.438C232.333 315.438 235.292 314.25 237.625 311.875C240 309.542 241.188 306.583 241.188 303C241.188 299.417 240 296.354 237.625 293.812C235.25 291.312 232.292 290.062 228.75 290.062H214.75V315.438H228.75ZM331.75 363H313.375L297.062 332.375H287.125V363H270V273.375H302.875C310.875 273.375 317.688 276.188 323.312 281.812C328.938 287.438 331.75 294.25 331.75 302.25V303.125C331.75 315.25 325.917 324.188 314.25 329.938L331.75 363ZM301.188 315.688C304.604 315.688 307.562 314.396 310.062 311.812C312.562 309.312 313.812 306.25 313.812 302.625C313.812 299.083 312.562 296.125 310.062 293.75C307.604 291.333 304.646 290.125 301.188 290.125H287.125V315.688H301.188ZM393.688 273.375V290.062H356.562V310.062H393.688V326.312H356.562V346.312H393.688V363H339.875V273.375H393.688ZM488.938 347.625C491.354 347.625 493.667 347.354 495.875 346.812C498.125 346.229 500.25 345.417 502.25 344.375C504.25 343.333 506.104 342.104 507.812 340.688C509.521 339.229 511.042 337.604 512.375 335.812L523.938 345.812C521.896 348.396 519.583 350.75 517 352.875C514.458 355 511.688 356.812 508.688 358.312C505.729 359.812 502.583 360.979 499.25 361.812C495.958 362.604 492.521 363 488.938 363C484.812 363 480.833 362.479 477 361.438C473.208 360.354 469.646 358.833 466.312 356.875C462.979 354.917 459.958 352.583 457.25 349.875C454.542 347.167 452.208 344.146 450.25 340.812C448.292 337.479 446.771 333.917 445.688 330.125C444.646 326.292 444.125 322.312 444.125 318.188C444.125 314.062 444.646 310.104 445.688 306.312C446.771 302.479 448.292 298.896 450.25 295.562C452.208 292.229 454.542 289.208 457.25 286.5C459.958 283.792 462.979 281.458 466.312 279.5C469.646 277.542 473.208 276.042 477 275C480.833 273.917 484.812 273.375 488.938 273.375C492.521 273.375 495.958 273.792 499.25 274.625C502.583 275.417 505.729 276.562 508.688 278.062C511.688 279.562 514.458 281.375 517 283.5C519.583 285.583 521.896 287.917 523.938 290.5L512.375 300.562C511.042 298.771 509.521 297.146 507.812 295.688C506.104 294.229 504.25 293 502.25 292C500.25 290.958 498.125 290.167 495.875 289.625C493.667 289.042 491.354 288.75 488.938 288.75C484.896 288.75 481.083 289.521 477.5 291.062C473.917 292.604 470.792 294.708 468.125 297.375C465.458 300.042 463.354 303.167 461.812 306.75C460.271 310.292 459.5 314.104 459.5 318.188C459.5 322.229 460.271 326.042 461.812 329.625C463.354 333.208 465.458 336.333 468.125 339C470.792 341.667 473.917 343.771 477.5 345.312C481.083 346.854 484.896 347.625 488.938 347.625ZM625.312 273.375V290.062H588.188V310.062H625.312V326.312H588.188V346.312H625.312V363H571.5V273.375H625.312Z" fill="white"/>
<g id="butterfly">
<path id="body" d="M333.754 80.7443C332.498 80.0918 323.731 76.9663 326.028 116.462C328.482 158.692 330.662 165.061 333.721 168.695C333.721 168.695 333.721 168.747 333.721 168.734C333.721 168.721 333.754 168.695 333.754 168.695C336.813 165.061 338.961 158.692 341.447 116.462C343.777 76.9663 335.01 80.0983 333.754 80.7443Z" fill="#ED1986"/>
<path id="head" d="M333.754 65.815C331.995 65.8202 330.309 66.5231 329.065 67.7701C327.821 69.0171 327.12 70.707 327.115 72.4706V75.5373C327.115 77.3025 327.815 78.9953 329.06 80.2435C330.305 81.4916 331.993 82.1929 333.754 82.1929C335.515 82.1929 337.203 81.4916 338.448 80.2435C339.693 78.9953 340.393 77.3025 340.393 75.5373V72.4706C340.387 70.707 339.686 69.0171 338.442 67.7701C337.199 66.5231 335.513 65.8202 333.754 65.815V65.815Z" fill="#ED1986"/>
<path id="r-tint" d="M335.609 60.0469C335.609 60.0469 335.505 58.9964 335.427 57.1564C335.348 55.3163 335.264 52.6671 335.381 49.5025C335.498 46.3378 335.674 42.6317 336.208 38.684C336.494 36.7265 336.8 34.6776 337.262 32.6288C337.727 30.5441 338.303 28.4858 338.987 26.4626C339.371 25.4513 339.807 24.4529 340.236 23.4611C340.783 22.5085 341.219 21.5036 341.857 20.6097C342.994 18.8195 344.394 17.2115 346.009 15.8399C347.572 14.466 349.525 13.6171 351.594 13.4126C353.446 13.274 355.293 13.746 356.853 14.7567C357.205 14.9697 357.54 15.2097 357.855 15.4745C357.855 15.4745 358.18 15.7159 358.219 15.6898C358.329 15.7286 358.442 15.7549 358.558 15.7681C359.128 15.8297 359.7 15.6838 360.172 15.357C360.574 15.0608 360.891 14.6635 361.091 14.2053C361.291 13.747 361.367 13.2441 361.311 12.747C361.25 12.052 361.092 11.3689 360.842 10.7178L360.582 10C360.582 10 360.712 10.2284 360.966 10.6525C361.332 11.2846 361.594 11.9721 361.74 12.6883C361.873 13.2845 361.844 13.9052 361.657 14.4866C361.471 15.0681 361.133 15.5892 360.68 15.9965C360.079 16.5232 359.31 16.8151 358.512 16.8187C358.264 16.8202 358.017 16.7782 357.783 16.6947C357.563 16.6224 357.357 16.5144 357.171 16.3749C355.605 15.2614 353.683 14.7686 351.776 14.9916C350.065 15.3029 348.481 16.1079 347.22 17.308C345.802 18.6217 344.575 20.1284 343.575 21.7842C343.028 22.5737 342.631 23.5198 342.143 24.3942C341.655 25.2686 341.362 26.2604 341.004 27.213C340.331 29.14 339.755 31.1 339.28 33.0855C338.83 35.043 338.407 37.0397 338.069 38.9581C337.731 40.8764 337.47 42.7621 337.197 44.5369C336.923 46.3118 336.735 48.0017 336.546 49.5678C336.227 52.6932 335.895 55.3098 335.798 57.1433C335.7 58.9768 335.609 60.0469 335.609 60.0469Z" fill="#ED1986"/>
<path id="l-tint" d="M330.044 60.0469C330.044 60.0469 329.959 59.0029 329.803 57.1629C329.647 55.3228 329.374 52.7128 329.055 49.5873C328.898 48.0213 328.684 46.3248 328.436 44.5565C328.189 42.7883 327.864 40.909 327.564 38.9776C327.265 37.0462 326.803 35.0626 326.354 33.1051C325.879 31.1187 325.301 29.1585 324.622 27.2326C324.264 26.2799 323.874 25.3403 323.49 24.4138C323.002 23.5525 322.598 22.6063 322.058 21.8038C321.054 20.1509 319.828 18.6447 318.413 17.3276C317.151 16.1284 315.568 15.3235 313.857 15.0112C312.315 14.7857 310.742 15.0745 309.379 15.8334C309.059 15.9957 308.752 16.1833 308.462 16.3945C308.277 16.5339 308.07 16.642 307.85 16.7143C307.616 16.7978 307.369 16.8397 307.121 16.8382C306.321 16.8351 305.55 16.5432 304.947 16.0161C304.495 15.6075 304.159 15.0863 303.972 14.5053C303.786 13.9242 303.756 13.3041 303.886 12.7079C304.034 11.9912 304.298 11.3036 304.667 10.6721L305.051 10.0196L304.771 10.7243C304.527 11.3768 304.372 12.0594 304.309 12.7536C304.252 13.25 304.327 13.7529 304.526 14.2112C304.725 14.6695 305.041 15.067 305.442 15.3636C305.916 15.6897 306.491 15.8354 307.062 15.7746C307.178 15.7606 307.291 15.7344 307.401 15.6964C307.401 15.6964 307.746 15.5006 307.759 15.481C308.074 15.2162 308.409 14.9762 308.761 14.7633C310.324 13.7533 312.172 13.2814 314.027 13.4191C316.11 13.6244 318.075 14.4829 319.643 15.8725C321.257 17.2459 322.657 18.8536 323.796 20.6423C324.447 21.5493 324.87 22.5411 325.416 23.4937C325.846 24.4855 326.276 25.4839 326.666 26.4953C327.35 28.5184 327.926 30.5767 328.391 32.6614C328.846 34.7103 329.159 36.7526 329.445 38.7166C329.979 42.6316 330.142 46.3705 330.265 49.5351C330.389 52.6998 330.265 55.3424 330.226 57.189C330.187 59.0356 330.044 60.0469 330.044 60.0469Z" fill="#ED1986"/>
<path id="r-wing" d="M348.463 80.268C348.841 77.9842 348.847 75.6678 349.524 73.4036L350.435 69.9193C350.787 68.7709 351.275 67.7008 351.737 66.585C353.618 62.1015 356.154 57.9233 359.261 54.1874C362.465 50.4055 366.14 47.0504 370.195 44.2042C372.258 42.7706 374.405 41.4632 376.625 40.2891C378.932 39.2865 381.33 38.5086 383.785 37.9662C388.627 36.5373 393.73 36.1001 398.813 36.0087C403.896 36.2371 409.064 36.8113 413.926 38.6187L415.761 39.2321L416.217 39.3822L416.451 39.4605L416.874 39.6366L417.655 39.9955C418.722 40.4979 419.686 40.8764 420.831 41.4767L424.372 43.4342L427.561 45.6201C431.694 48.6934 435.322 52.3966 438.313 56.5952C444.288 64.9537 447.575 74.8653 448.616 84.7246C448.837 87.2041 449 89.6901 448.974 92.1761C448.997 93.5128 448.925 94.8495 448.759 96.176C448.616 97.4418 448.44 98.6946 448.212 99.9279C447.327 104.866 445.877 109.685 443.891 114.289C441.807 118.971 439.075 123.333 435.775 127.248C434.048 129.178 432.202 130.997 430.249 132.697L427.112 135.006C426.103 135.812 425.013 136.507 423.858 137.081C421.56 138.249 419.347 139.691 416.887 140.344C414.472 141.146 412.09 142.184 409.604 142.53C407.118 142.876 404.664 143.704 402.197 143.75L394.797 144.194L397.401 134.002C400.729 136.015 403.791 138.442 406.512 141.225C409.185 143.935 411.525 146.956 413.483 150.223C415.481 153.514 417.014 157.067 418.039 160.78C419.09 164.486 419.65 168.314 419.705 172.166L419.738 172.884L419.686 173.889L419.601 175.155L419.425 177.68C419.152 179.585 418.69 181.784 418.221 183.761C417.103 187.529 415.445 191.113 413.301 194.404C412.255 196.052 411.061 197.6 409.734 199.03C408.474 200.509 407.079 201.868 405.569 203.088C402.601 205.578 399.318 207.665 395.806 209.294C394.01 209.985 392.226 210.749 390.378 211.29C388.497 211.708 386.668 212.38 384.728 212.53C382.818 212.845 380.885 212.998 378.949 212.987H376.04L373.15 212.641C371.22 212.423 369.314 212.03 367.455 211.467C365.573 210.985 363.73 210.361 361.942 209.6L361.291 209.326L360.953 209.183L360.79 209.111L360.413 208.915L359.339 208.263C358.597 207.747 358.037 207.421 357.145 206.71L354.724 204.752L352.648 202.736C350.029 200.013 347.799 196.938 346.022 193.601C344.33 190.346 343.107 186.866 342.391 183.265C340.957 176.376 341.275 169.236 343.315 162.503C342.84 176.081 348.854 189.145 358.72 195.65L360.575 196.811L362.352 197.692C362.827 197.979 363.823 198.345 364.533 198.651L365.685 199.187L365.496 199.089H365.561L365.685 199.128L365.932 199.226L366.427 199.428C368.98 200.702 371.735 201.519 374.569 201.842L376.69 202.116H378.825C380.256 202.133 381.684 202.021 383.095 201.783C384.533 201.705 385.887 201.131 387.293 200.863C388.666 200.465 389.987 199.872 391.335 199.382C393.933 198.164 396.364 196.613 398.566 194.769C400.74 192.929 402.646 190.792 404.228 188.42C405.77 186.054 406.97 183.482 407.795 180.779C408.055 179.474 408.354 178.365 408.608 176.949L408.777 174.424L408.862 173.165V172.852V172.571C408.862 172.728 408.862 172.173 408.862 172.91V172.362C408.823 169.459 408.4 166.574 407.606 163.782C406.843 160.99 405.693 158.319 404.189 155.847C401.191 150.857 397.07 146.641 392.155 143.535L377.12 134.432L394.791 133.323L401.078 132.931C403.206 132.931 405.139 132.22 407.189 131.927C409.24 131.633 411.094 130.798 413.014 130.184C414.934 129.571 416.64 128.514 418.43 127.646C419.329 127.222 420.171 126.685 420.935 126.048L423.337 124.299C424.825 122.989 426.238 121.594 427.567 120.123C430.169 117.021 432.327 113.571 433.978 109.872C435.611 106.064 436.805 102.082 437.539 98.003C437.734 96.9786 437.877 95.9607 437.988 94.9493C438.115 94.0045 438.165 93.0508 438.137 92.0978C438.137 89.9968 438.02 87.9023 437.838 85.8208C436.966 77.5079 434.213 69.456 429.514 62.8853C427.168 59.6287 424.334 56.7562 421.111 54.3702L418.638 52.6737L416.204 51.2904C415.338 50.814 414.173 50.3442 413.171 49.8744L412.39 49.5155C412.565 49.5938 412.025 49.4046 411.882 49.3655L410.463 48.9022C406.727 47.4863 402.653 47.0882 398.663 46.8664C396.639 47.023 394.608 46.8664 392.597 47.2775L389.564 47.7146L386.616 48.4976C382.756 49.8548 378.851 51.0685 374.94 52.6345C371.03 54.307 367.351 56.4758 363.992 59.0877C360.52 61.7236 357.45 64.8538 354.88 68.3794C352.075 71.8115 350.168 75.9027 348.463 80.268Z" fill="#ED1986"/>
<path id="b-right" d="M367.09 97.7289L366.622 96.052C366.156 94.4464 365.887 92.7899 365.821 91.1191C365.644 88.4727 365.897 85.815 366.57 83.2499C367.401 79.8297 368.905 76.6107 370.996 73.7821C373.505 70.3369 376.772 67.5171 380.543 65.541C382.673 64.4239 384.931 63.5715 387.267 63.0027C389.629 62.4345 392.056 62.1779 394.485 62.2393C399.733 62.3182 404.862 63.8174 409.331 66.5785C413.954 69.4788 417.708 73.5804 420.193 78.4475C421.42 80.9234 422.297 83.5588 422.797 86.2775C423.27 88.9005 423.412 91.5729 423.22 94.2315C422.786 99.4753 420.944 104.503 417.889 108.782C415.263 112.505 411.785 115.542 407.747 117.639C403.709 119.736 399.228 120.831 394.68 120.834C388.472 120.853 382.455 118.684 377.68 114.707C376.397 113.64 375.226 112.444 374.185 111.138L373.137 109.741L374.439 110.864C375.712 111.85 377.059 112.738 378.467 113.519C383.33 116.216 388.913 117.321 394.433 116.678C395.258 116.58 396.077 116.438 396.886 116.253L398.273 115.914L399.451 115.503C401.181 114.943 402.843 114.187 404.404 113.252C407.719 111.262 410.528 108.528 412.611 105.265C414.759 101.801 416.012 97.8536 416.256 93.7813C416.516 89.6069 415.636 85.4403 413.711 81.7296C411.874 77.9774 409.061 74.7919 405.569 72.5097C402.161 70.2691 398.247 68.9228 394.185 68.5947C393.24 68.5118 392.289 68.4965 391.341 68.549C390.489 68.549 389.219 68.7839 388.198 68.8687C386.37 69.1846 384.582 69.7011 382.867 70.4087C379.6 71.7975 376.65 73.8402 374.198 76.4117C370.408 80.4862 367.979 85.6426 367.247 91.1648C367.014 92.7608 366.933 94.3754 367.006 95.9868C367.09 97.1221 367.09 97.7289 367.09 97.7289Z" fill="#F282A6"/>
<path id="s-right" d="M370.911 148.716L372.135 148.415C373.299 148.121 374.494 147.968 375.695 147.959C377.584 147.909 379.471 148.142 381.292 148.65C383.707 149.275 385.97 150.385 387.944 151.913C390.317 153.756 392.26 156.097 393.639 158.771C394.406 160.262 394.993 161.839 395.389 163.469C395.78 165.144 395.951 166.864 395.897 168.584C395.815 172.279 394.745 175.885 392.799 179.024C390.768 182.259 387.903 184.883 384.507 186.619C382.784 187.488 380.948 188.112 379.053 188.472C377.216 188.81 375.345 188.915 373.482 188.786C369.817 188.492 366.297 187.219 363.289 185.099C360.503 183.148 358.262 180.512 356.781 177.445C355.47 174.741 354.751 171.786 354.672 168.78C354.597 164.347 356.039 160.022 358.76 156.526C359.499 155.576 360.329 154.702 361.239 153.916L362.222 153.126L361.376 154.053C360.629 154.96 359.948 155.919 359.339 156.924C357.253 160.464 356.342 164.576 356.735 168.669C356.996 171.454 357.888 174.143 359.341 176.532C360.795 178.92 362.773 180.944 365.125 182.45C367.727 184.115 370.707 185.094 373.788 185.295C375.379 185.393 376.977 185.279 378.539 184.955C380.068 184.629 381.547 184.103 382.939 183.389C385.768 181.971 388.162 179.814 389.87 177.145C391.543 174.542 392.528 171.556 392.734 168.467C392.82 166.97 392.733 165.468 392.474 163.991C392.224 162.601 391.82 161.244 391.27 159.945C390.216 157.497 388.641 155.31 386.655 153.537C383.601 150.79 379.752 149.092 375.669 148.689C374.504 148.561 373.329 148.543 372.161 148.637L370.911 148.716Z" fill="#F282A6"/>
<path id="l-wing" d="M318.537 80.268C316.845 75.9093 314.925 71.7854 312.146 68.3468C309.576 64.8212 306.506 61.691 303.034 59.0551C299.675 56.4432 295.996 54.2744 292.086 52.6019C288.181 51.0359 284.276 49.8222 280.371 48.465L277.403 47.6885L274.37 47.2514C272.359 46.8338 270.322 46.9969 268.304 46.8403C264.288 47.0622 260.24 47.4602 256.504 48.8761L255.085 49.3394C254.942 49.3785 254.435 49.5678 254.578 49.4895L253.797 49.8483C252.794 50.3181 251.629 50.7879 250.764 51.2642L248.323 52.6475L245.856 54.3441C242.639 56.746 239.813 59.634 237.48 62.9049C232.781 69.4756 230.021 77.5275 229.149 85.8403C228.973 87.9218 228.83 90.0164 228.85 92.1174C228.827 93.0705 228.879 94.0239 229.006 94.9688C229.117 95.9802 229.26 96.9982 229.455 98.0226C230.185 102.102 231.379 106.085 233.015 109.892C234.666 113.591 236.824 117.041 239.426 120.142C240.756 121.614 242.168 123.008 243.657 124.318L246.058 126.067C246.822 126.704 247.664 127.242 248.564 127.666C250.354 128.534 252 129.682 253.979 130.204C255.958 130.726 257.728 131.692 259.804 131.946C261.88 132.201 263.787 132.938 265.916 132.951L272.203 133.343L289.867 134.432L274.832 143.535C269.917 146.641 265.796 150.857 262.798 155.847C261.285 158.317 260.126 160.988 259.355 163.782C258.561 166.574 258.138 169.459 258.099 172.362V172.91C258.099 172.173 258.099 172.728 258.099 172.571V172.852V173.165L258.184 174.424L258.353 176.949C258.607 178.365 258.906 179.468 259.166 180.779C259.988 183.483 261.189 186.056 262.733 188.42C264.315 190.792 266.221 192.929 268.395 194.769C270.596 196.615 273.027 198.165 275.626 199.382C276.974 199.872 278.295 200.465 279.668 200.863C281.074 201.138 282.428 201.705 283.866 201.783C285.274 202.021 286.701 202.132 288.129 202.116H290.27L292.392 201.842C295.226 201.519 297.981 200.702 300.534 199.428L301.029 199.226L301.276 199.128L301.4 199.089H301.465L301.276 199.187H301.309L302.461 198.651C303.17 198.325 304.166 197.999 304.641 197.692L306.418 196.811L308.273 195.65C318.133 189.125 324.154 176.075 323.679 162.503C325.719 169.236 326.037 176.376 324.603 183.265C323.887 186.867 322.662 190.347 320.965 193.601C319.192 196.94 316.964 200.014 314.345 202.736L312.269 204.752L309.848 206.71C308.963 207.421 308.397 207.747 307.655 208.263L306.581 208.915L306.203 209.111L306.041 209.183L305.702 209.326L305.051 209.6C303.263 210.361 301.421 210.985 299.539 211.467C297.68 212.03 295.774 212.423 293.844 212.641L290.954 212.987H288.045C286.109 212.998 284.175 212.845 282.265 212.53C280.312 212.38 278.497 211.708 276.609 211.29C274.761 210.749 272.984 209.985 271.188 209.294C267.675 207.665 264.393 205.578 261.425 203.088C259.914 201.868 258.52 200.509 257.259 199.03C255.932 197.6 254.738 196.052 253.693 194.404C251.543 191.121 249.879 187.542 248.753 183.781C248.284 181.823 247.822 179.605 247.549 177.7L247.373 175.174L247.288 173.909L247.236 172.904V172.186C247.288 168.334 247.848 164.505 248.902 160.8C249.927 157.086 251.46 153.533 253.458 150.242C255.417 146.976 257.757 143.955 260.429 141.244C263.151 138.462 266.212 136.035 269.541 134.021L272.144 144.213L264.809 143.763C262.342 143.717 259.869 142.941 257.402 142.543C254.936 142.145 252.541 141.153 250.12 140.363C247.659 139.659 245.446 138.249 243.149 137.101C241.994 136.527 240.903 135.831 239.895 135.026L236.744 132.67C234.791 130.971 232.946 129.152 231.219 127.222C227.918 123.307 225.186 118.944 223.103 114.263C221.112 109.651 219.66 104.823 218.775 99.8757C218.547 98.6424 218.371 97.3896 218.228 96.1238C218.058 94.7976 217.987 93.4607 218.013 92.1239C218.013 89.6379 218.15 87.1519 218.371 84.6724C219.412 74.787 222.699 64.9016 228.674 56.543C231.665 52.3444 235.293 48.6412 239.426 45.5679L242.615 43.382L246.156 41.4245C247.301 40.8242 248.265 40.4458 249.332 39.9433L250.113 39.5845L250.536 39.4083L250.77 39.33L251.226 39.1799L253.061 38.5666C257.923 36.7722 263.091 36.198 268.174 35.9566C273.251 36.0544 278.36 36.4916 283.202 37.9141C285.657 38.4565 288.055 39.2343 290.362 40.237C292.582 41.411 294.729 42.7184 296.792 44.152C300.847 46.9983 304.521 50.3533 307.726 54.1353C310.833 57.8711 313.369 62.0493 315.25 66.5328C315.693 67.6486 316.187 68.7187 316.552 69.8671L317.463 73.3515C318.153 75.6679 318.159 77.9842 318.537 80.268Z" fill="#ED1986"/>
<path id="b-left" d="M299.91 97.7289C299.91 97.7289 299.942 97.1221 299.994 95.9868C300.064 94.3752 299.981 92.7606 299.747 91.1648C299.021 85.6422 296.593 80.4846 292.802 76.4117C290.35 73.8402 287.4 71.7975 284.133 70.4087C282.418 69.7011 280.63 69.1846 278.802 68.8687C277.781 68.7839 276.512 68.5229 275.659 68.549C274.711 68.4965 273.76 68.5118 272.815 68.5947C268.753 68.9217 264.838 70.2681 261.431 72.5097C257.939 74.7919 255.126 77.9774 253.289 81.7296C251.364 85.4403 250.484 89.6069 250.744 93.7813C250.988 97.8536 252.241 101.801 254.389 105.265C256.456 108.546 259.257 111.298 262.57 113.304C264.131 114.24 265.793 114.995 267.523 115.555L268.701 115.966L270.081 116.306C270.893 116.49 271.714 116.632 272.541 116.73C278.061 117.372 283.644 116.268 288.507 113.572C289.915 112.79 291.262 111.902 292.535 110.916L293.837 109.794L292.815 111.138C291.774 112.444 290.603 113.64 289.32 114.707C284.545 118.683 278.528 120.852 272.32 120.834C267.772 120.831 263.291 119.736 259.253 117.639C255.215 115.542 251.737 112.505 249.111 108.782C246.056 104.503 244.214 99.4753 243.78 94.2315C243.588 91.5729 243.73 88.9005 244.203 86.2775C244.703 83.5588 245.58 80.9234 246.807 78.4475C249.292 73.5804 253.046 69.4788 257.669 66.5785C262.137 63.8168 267.267 62.3175 272.515 62.2393C274.944 62.1779 277.371 62.4345 279.733 63.0027C282.056 63.5745 284.3 64.4269 286.417 65.541C290.189 67.5171 293.456 70.3369 295.965 73.7821C298.058 76.6111 299.567 79.8297 300.404 83.2499C301.077 85.815 301.33 88.4727 301.153 91.1191C301.087 92.7899 300.818 94.4464 300.352 96.052L299.91 97.7289Z" fill="#F282A6"/>
<path id="s-left" d="M296.089 148.716L294.839 148.611C293.671 148.517 292.496 148.534 291.331 148.663C287.248 149.066 283.399 150.764 280.345 153.511C278.359 155.284 276.784 157.471 275.73 159.919C275.177 161.217 274.773 162.574 274.526 163.964C274.27 165.451 274.187 166.961 274.279 168.467C274.482 171.557 275.468 174.543 277.143 177.145C278.864 179.818 281.275 181.973 284.12 183.383C285.512 184.096 286.991 184.623 288.52 184.949C290.081 185.273 291.679 185.387 293.271 185.288C296.352 185.087 299.332 184.109 301.934 182.443C304.384 180.853 306.432 178.713 307.915 176.192C309.242 173.883 310.061 171.315 310.317 168.662C310.717 164.57 309.805 160.455 307.713 156.917C307.108 155.912 306.429 154.952 305.683 154.046L304.836 153.12L305.819 153.909C306.729 154.696 307.56 155.57 308.299 156.519C311.019 160.015 312.462 164.34 312.386 168.773C312.308 171.78 311.589 174.734 310.278 177.439C308.797 180.506 306.556 183.141 303.769 185.093C300.753 187.22 297.221 188.496 293.544 188.786C291.681 188.915 289.81 188.81 287.973 188.472C286.078 188.113 284.242 187.489 282.519 186.619C279.11 184.879 276.235 182.246 274.201 178.998C272.255 175.859 271.185 172.253 271.103 168.558C271.049 166.838 271.22 165.118 271.611 163.442C272.011 161.821 272.6 160.253 273.368 158.771C274.748 156.101 276.691 153.765 279.063 151.926C281.036 150.397 283.299 149.287 285.714 148.663C287.536 148.155 289.422 147.922 291.312 147.972C292.512 147.981 293.708 148.134 294.872 148.428L296.089 148.716Z" fill="#F282A6"/>
</g>
<g id="curve" clip-path="url(#clip1_2_3)">
<path id="Vector" d="M498.999 254.545L494.833 254.192C490.958 253.887 487.063 253.946 483.2 254.368C473.336 255.095 459.171 259.438 446.734 270.377C440.146 276.238 434.917 283.458 431.411 291.537C429.577 295.824 428.234 300.305 427.409 304.892C426.687 310.376 426.136 314.753 426.592 319.748C427.041 329.71 430.622 339.618 436.122 348.386C441.826 357.011 449.777 364.456 459.266 368.976C463.806 371.446 469.17 373.047 473.874 374.154C479.061 375.221 484.367 375.6 489.653 375.28C499.879 374.618 509.77 371.387 518.406 365.888C526.67 360.371 533.715 353.333 538.269 345.251C542.683 337.625 545.41 329.148 546.268 320.386C547.759 303.915 542.755 289.997 537.521 281.622C535.507 278.305 533.25 275.14 530.768 272.155L527.963 269.081L531.231 271.694C534.249 274.286 537.002 277.171 539.447 280.306C545.573 288.3 553.477 302.232 553.014 320.752C552.754 330.684 550.356 340.443 545.982 349.37C541.056 359.511 533.588 368.213 524.301 374.635C514.318 381.646 502.634 385.864 490.463 386.851C484.276 387.285 478.059 386.934 471.961 385.806C465.406 384.448 459.579 382.664 453.861 379.698C442.473 374.072 433.004 365.026 426.326 354.589C419.877 344.245 416.332 332.365 416.061 320.189C415.872 314.514 416.436 308.839 417.736 303.311C419.047 297.932 420.994 292.726 423.536 287.805C428.12 278.996 434.576 271.288 442.452 265.22C448.999 260.146 456.512 256.452 464.535 254.362C470.581 252.685 476.845 251.921 483.118 252.095C487.105 252.128 491.074 252.631 494.942 253.595L498.999 254.545Z" fill="#ED1986"/>
</g>
</g>
<defs>
<clipPath id="clip0_2_3">
<rect width="649" height="397" fill="white"/>
</clipPath>
<clipPath id="clip1_2_3">
<rect width="137" height="135" fill="white" transform="translate(416 252)"/>
</clipPath>
</defs>
</svg>
